<svg viewBox="0 0 24 24" fill="#F05B67" xmlns="http://www.w3.org/2000/svg">
<path d="M6.11795 1H15.8821C16.4069 1.00011 16.9213 1.14666 17.3674 1.42316C17.8135 1.69966 18.1736 2.09514 18.4072 2.56513C18.4279 2.60996 18.4454 2.65624 18.4595 2.70359L20.6779 10.7508C20.8913 11.5277 20.9996 12.3297 21 13.1354V18.1795C21 18.9275 20.7028 19.6449 20.1739 20.1739C19.6449 20.7028 18.9275 21 18.1795 21H3.82051C3.07247 21 2.35506 20.7028 1.82611 20.1739C1.29716 19.6449 1 18.9275 1 18.1795V13.1354C1 12.3303 1.10872 11.5282 1.32205 10.7508L3.54051 2.70359C3.55459 2.65624 3.57207 2.60996 3.59282 2.56513C3.82642 2.09514 4.18652 1.69966 4.63262 1.42316C5.07871 1.14666 5.59311 1.00011 6.11795 1ZM19.4533 12.7949H16.2C15.9889 12.7949 15.7811 12.8471 15.595 12.9468C15.409 13.0464 15.2504 13.1905 15.1333 13.3662L14.3005 14.6154C14.043 15.0018 13.6941 15.3187 13.2847 15.5378C12.8753 15.757 12.4182 15.8717 11.9538 15.8718H10.0462C9.5818 15.8717 9.12465 15.757 8.71528 15.5378C8.30591 15.3187 7.95699 15.0018 7.69949 14.6154L6.86667 13.3662C6.74964 13.1905 6.59105 13.0464 6.40497 12.9468C6.21889 12.8471 6.01109 12.7949 5.8 12.7949H2.54667C2.5412 12.9077 2.53846 13.0212 2.53846 13.1354V18.1795C2.53846 18.5195 2.67353 18.8456 2.91397 19.086C3.1544 19.3265 3.48049 19.4615 3.82051 19.4615H18.1795C18.5195 19.4615 18.8456 19.3265 19.086 19.086C19.3265 18.8456 19.4615 18.5195 19.4615 18.1795V13.1354C19.4615 13.0226 19.4588 12.9091 19.4533 12.7949Z" />
</svg>
