<svg viewBox="0 0 47 48" fill="none" xmlns="http://www.w3.org/2000/svg">
  <path d="M22.2112 0C25.6999 0.0539895 28.6681 0.626416 31.5126 1.86194C33.8415 2.8739 35.9278 4.24025 37.8216 5.907C39.1462 7.07262 40.2776 8.41682 41.2686 9.87384C42.9713 12.3767 44.136 15.1108 44.7017 18.0809C44.9033 19.14 44.9776 20.2225 45.1083 21.2947C45.2139 22.1585 45.2139 23.0168 45.0033 23.8689C44.5884 25.5453 43.621 26.8037 42.1547 27.7153C40.4861 28.7535 38.6715 28.8899 36.9202 28.2164C34.6664 27.3491 33.2362 25.6685 32.9714 23.1739C32.8963 22.4645 32.8692 21.7495 32.7837 21.0414C32.5481 19.0977 31.7573 17.3791 30.5091 15.8881C28.9684 14.0483 26.9954 12.8896 24.6353 12.3878C23.6178 12.1719 22.5858 12.1123 21.5621 12.2141C18.4417 12.5235 15.937 13.9411 14.0975 16.4855C13.3594 17.5057 12.8959 18.6354 12.5338 19.8501C12.1397 21.1736 12.0564 22.4901 12.2537 23.8087C12.8375 27.6966 14.9808 30.4431 18.596 32.0206C19.7163 32.5093 20.9102 32.7384 22.1368 32.7903C22.7804 32.8173 23.4045 32.9087 23.8951 33.3987C24.481 33.9829 24.6505 34.6772 24.36 35.4296C24.0682 36.1847 23.5469 36.6886 22.6525 36.7211C20.7414 36.7904 18.9337 36.3557 17.1762 35.6649C15.5534 35.0274 14.0954 34.102 12.8243 32.9273C11.5879 31.7853 10.574 30.4508 9.80814 28.9411C8.68229 26.7227 8.16384 24.3569 8.26322 21.8907C8.35982 19.4957 9.03603 17.2406 10.3085 15.1814C11.0716 13.9466 11.9591 12.8066 13.0502 11.8486C15.1121 10.0393 17.5063 8.88473 20.2236 8.44382C23.221 7.95791 26.1218 8.34483 28.8322 9.7008C32.8838 11.7282 35.4733 14.9662 36.4851 19.3843C36.7325 20.4662 36.7854 21.5937 36.8972 22.7033C37.0105 23.8322 37.9522 24.6663 39.1253 24.633C40.1976 24.6033 41.1685 23.6509 41.1782 22.5738C41.1984 20.336 40.8335 18.1522 40.0142 16.0716C39.5555 14.9066 39.0287 13.7466 38.3664 12.6875C36.3357 9.44124 33.5489 7.01655 30.0254 5.46886C28.4402 4.77253 26.7827 4.31085 25.0571 4.09143C20.6378 3.5287 16.518 4.34269 12.7048 6.67116C10.6206 7.94337 8.89981 9.57898 7.44594 11.533C6.08867 13.3569 5.10112 15.3455 4.51179 17.5279C4.30539 18.2927 4.19211 19.0853 4.08161 19.8716C3.96833 20.6773 3.84185 21.4906 3.84115 22.3004C3.83976 24.3645 4.1657 26.3815 4.81202 28.3521C5.66544 30.9553 7.03522 33.2464 8.95402 35.1942C11.4184 37.695 14.3129 39.503 17.7502 40.3827C20.1388 40.9939 22.558 41.2473 25.0112 40.9026C26.1197 40.7468 27.2164 40.5108 28.3151 40.2914C28.7571 40.2035 28.778 40.0782 28.6466 39.6573C28.3443 38.6918 27.9794 37.7317 27.8106 36.7412C27.4054 34.3588 28.0455 31.7389 30.5439 30.1884C34.2049 27.916 39.0155 29.8839 39.8404 34.2432C40.1963 36.1245 39.65 37.7463 38.5318 39.2275C37.8181 40.173 36.8792 40.8645 35.9007 41.5103C35.4865 41.7837 35.4809 41.8792 35.9132 42.1187C37.2802 42.8766 38.7354 43.4318 40.2817 43.6422C41.86 43.8574 43.4556 43.962 45.0471 44.0686C45.9554 44.1295 46.7095 44.6472 46.9326 45.4771C47.2231 46.5569 46.5489 47.8831 45.412 47.9399C44.8164 47.9696 44.2152 48.0319 43.6252 47.98C42.2103 47.8541 40.7905 47.7302 39.3915 47.4934C37.1308 47.1107 35.0389 46.242 33.1062 45.0182C32.5627 44.6742 32.0832 44.2271 31.587 43.8118C31.3987 43.6539 31.2291 43.6311 30.9866 43.683C29.2936 44.0478 27.6 44.4112 25.8987 44.7337C24.5769 44.9843 23.2321 45.1006 21.8915 44.9995C20.6281 44.904 19.3681 44.7275 18.1179 44.5185C16.222 44.2021 14.4192 43.5432 12.7089 42.7015C10.4475 41.5878 8.39874 40.1495 6.60086 38.3588C3.90717 35.6753 2.03563 32.519 0.932019 28.8975C0.473341 27.3927 0.219679 25.8568 0.08555 24.2897C-0.0492736 22.7192 -0.0291196 21.159 0.177286 19.6003C0.467087 17.4171 1.06128 15.3178 1.96682 13.3077C2.5367 12.0417 3.23305 10.847 4.02323 9.70565C5.72729 7.2422 7.85667 5.21621 10.3759 3.59653C13.0835 1.85295 16.0371 0.733703 19.2291 0.275485C20.3473 0.114901 21.4822 0.0650642 22.2112 0ZM33.9742 33.1675C32.7003 33.198 31.8316 33.9227 31.6961 34.9914C31.5321 36.2789 31.9129 37.4638 32.4766 38.6039C32.5815 38.8157 32.7288 38.7997 32.9061 38.7056C33.9402 38.1539 34.9277 37.5518 35.6025 36.5467C36.1036 35.7999 36.1495 35.0433 35.7144 34.2709C35.3009 33.5358 34.6351 33.1994 33.9756 33.1682L33.9742 33.1675Z" fill="url(#paint0_linear_882_7287)" />
  <defs>
    <linearGradient id="paint0_linear_882_7287" x1="-1.66577" y1="8.02782" x2="40.1784" y2="33.2034" gradientUnits="userSpaceOnUse">
      <stop stop-color="#F05B67" />
      <stop offset="1" stop-color="#F05B67" />
    </linearGradient>
  </defs>
</svg>