<svg
  viewBox="0 0 24 24"
  fill="none"
  xmlns="http://www.w3.org/2000/svg"
>
  <path
    stroke="#ffffff"
    stroke-linecap="round"
    stroke-linejoin="round"
    stroke-width="2"
    d="M12.0292 11.1456C15.7059 11.1456 19.3826 11.1449 23.06 11.1463C23.7252 11.1463 24.1565 11.7014 23.9448 12.2843C23.8203 12.6269 23.565 12.8142 23.2052 12.855C23.1172 12.865 23.0271 12.8586 22.9377 12.8586C15.6465 12.8586 8.35543 12.8586 1.06432 12.8564C0.905518 12.8564 0.739567 12.8507 0.590068 12.8042C0.195934 12.6812 -0.0415471 12.2857 0.0135314 11.8859C0.06861 11.4854 0.402658 11.175 0.811813 11.1471C0.900511 11.1413 0.989924 11.1449 1.07934 11.1449C4.72954 11.1449 8.37975 11.1449 12.0292 11.1449V11.1456ZM7.28748 1.71831C7.77174 1.7133 8.14155 1.33781 8.14513 0.871487C8.14942 0.405879 7.78104 0.0125072 7.3025 0.0103615C5.67804 0.00392455 4.05358 -0.0132407 2.42983 0.0189442C1.14443 0.0446921 0.0442896 1.14828 0.0178232 2.43424C-0.0129349 3.91475 0.00423244 5.39669 0.00995488 6.87862C0.0113855 7.25555 0.215963 7.52018 0.561456 7.65964C1.12297 7.88708 1.71524 7.46439 1.71811 6.82999C1.72454 5.43745 1.71811 4.04564 1.72097 2.6531C1.72168 2.06805 2.0686 1.72331 2.65587 1.72188C3.4141 1.71974 4.17303 1.72188 4.93126 1.72117C5.71666 1.72117 6.50207 1.72689 7.28748 1.71902V1.71831ZM16.7495 0.00750066C16.3626 0.00750066 16.0779 0.18273 15.9255 0.537479C15.6802 1.10823 16.1015 1.71616 16.7481 1.71902C18.2653 1.72475 19.7824 1.72045 21.2996 1.72117C21.9527 1.72117 22.2839 2.05446 22.2846 2.71175C22.2853 4.05922 22.2846 5.4067 22.2846 6.75418C22.2846 7.32421 22.6315 7.714 23.1358 7.71758C23.6415 7.72044 23.997 7.33136 23.9977 6.76562C23.9992 5.39097 24.002 4.01703 23.9977 2.64237C23.992 1.1211 22.879 0.0139376 21.3561 0.00750066C20.6244 0.00463977 19.8926 0.00750066 19.1608 0.00750066C18.3575 0.00750066 17.5543 0.00750066 16.751 0.00750066H16.7495ZM7.25314 23.9981C7.64084 23.9981 7.92481 23.8208 8.07789 23.4682C8.32467 22.901 7.89978 22.2888 7.25672 22.2866C5.73955 22.2809 4.22239 22.2852 2.70523 22.2845C2.0543 22.2845 1.72097 21.9483 1.72025 21.2939C1.71954 19.9464 1.72025 18.5989 1.72025 17.2515C1.72025 16.6807 1.37333 16.2916 0.869752 16.2881C0.361885 16.2845 0.00852427 16.6721 0.00780897 17.2386C0.00637836 18.6132 0.00351713 19.9872 0.00780897 21.3618C0.0128161 22.8824 1.12583 23.9917 2.648 23.9981C3.37976 24.0017 4.11152 23.9981 4.84328 23.9981C5.64656 23.9981 6.44985 23.9981 7.25314 23.9981ZM21.3325 23.9981C22.8876 23.9931 23.9934 22.8881 23.997 21.3311C23.9999 19.9743 23.9985 18.6183 23.997 17.2615C23.997 17.1549 23.9956 17.0455 23.9706 16.9432C23.8668 16.5219 23.4727 16.2466 23.0507 16.2916C22.6086 16.3388 22.2874 16.7007 22.2867 17.1749C22.2831 18.5496 22.286 19.9235 22.2846 21.2982C22.2846 21.9555 21.9541 22.2845 21.296 22.2852C19.7967 22.2859 18.2975 22.2845 16.7982 22.2859C16.2481 22.2859 15.8647 22.6364 15.8604 23.1334C15.8554 23.6398 16.2453 23.9974 16.8096 23.9989C17.5857 24.001 18.3626 23.9989 19.1387 23.9989C19.8704 23.9989 20.6022 24.001 21.3339 23.9989L21.3325 23.9981Z"
  />
</svg>