<svg viewBox="0 0 24 24" fill="none" xmlns="http://www.w3.org/2000/svg">
    <path d="M12.0949 1.70654C11.3245 1.70654 10.627 2.11299 10.2418 2.71299C10.0545 3.00332 9.92952 3.36138 9.96072 3.7388C9.98154 4.02912 9.88787 4.31945 9.72134 4.59041C9.1904 5.41299 8.01401 5.72267 7.0979 5.25816C6.06722 4.69687 4.76596 5.03558 4.17254 5.99364L3.47507 7.13558C2.87127 8.09365 3.20441 9.32268 4.24539 9.87429C5.13029 10.3678 5.4426 11.4614 4.91166 12.2936C4.74513 12.5549 4.55778 12.7775 4.26621 12.913C3.90188 13.0969 3.62077 13.3872 3.42296 13.6775C3.0378 14.2775 3.06908 15.013 3.44379 15.6614L4.17254 16.8227C4.55778 17.442 5.27607 17.8291 6.0152 17.8291C6.37953 17.8291 6.78559 17.7324 7.11873 17.5388C7.38939 17.3743 7.7017 17.3162 8.03483 17.3162C9.06544 17.3162 9.92952 18.1195 9.96072 19.0775C9.96072 20.1904 10.9185 21.0614 12.1157 21.0614H13.5315C14.7391 21.0614 15.6969 20.1904 15.6969 19.0775C15.7177 18.1195 16.5818 17.3162 17.6124 17.3162C17.956 17.3162 18.2683 17.3743 18.5285 17.5388C18.8617 17.7324 19.2781 17.8291 19.632 17.8291C20.3816 17.8291 21.0999 17.442 21.4851 16.8227L22.2034 15.6614C22.5886 15.0324 22.6094 14.2775 22.2242 13.6775C22.0577 13.3872 21.7454 13.0969 21.3914 12.913C21.0999 12.7775 20.9125 12.5549 20.7355 12.2936C20.215 11.4614 20.5273 10.3678 21.4122 9.87429C22.4429 9.32268 22.776 8.09365 22.1826 7.13558L21.4851 5.99364C20.8813 5.03558 19.5904 4.69687 18.5494 5.25816C17.6437 5.72267 16.4673 5.41299 15.9363 4.59041C15.7698 4.31945 15.676 4.02912 15.6969 3.7388C15.7177 3.36138 15.6032 3.00332 15.4054 2.71299C15.0202 2.11299 14.3228 1.7259 13.5627 1.70654H12.0949ZM12.8132 8.65494C14.4476 8.65494 15.7698 9.87429 15.7698 11.3936C15.7698 12.913 14.4476 14.1227 12.8132 14.1227C11.1788 14.1227 9.88787 12.913 9.88787 11.3936C9.88787 9.87429 11.1788 8.65494 12.8132 8.65494Z" fill="#F05B67" stroke="#F05B67" stroke-width="1.54839" stroke-linecap="round" stroke-linejoin="round"/>
</svg>
